<svg width="697" height="371" viewBox="0 0 697 371" fill="none" xmlns="http://www.w3.org/2000/svg">
<g filter="url(#filter0_i_16_24)">
<path d="M264.567 108.4C251.647 108.4 241.753 97.8609 235.082 86.7965C232.456 82.4413 229.088 78.6326 224.979 75.3704C215.095 67.5229 201.681 63.5992 184.737 63.5992C173.224 63.5992 163.503 65.3561 155.574 68.8699C147.645 72.2666 141.563 77.0101 137.327 83.1007C133.199 89.1912 131.136 96.1016 131.136 103.832C130.918 110.274 132.168 115.896 134.883 120.698C137.707 125.5 141.563 129.658 146.45 133.172C151.338 136.569 156.986 139.555 163.394 142.132C169.803 144.592 176.646 146.7 183.923 148.457L213.901 156.187C228.455 159.701 241.815 164.386 253.98 170.242C266.145 176.098 276.68 183.302 285.587 191.852C294.493 200.402 301.39 210.475 306.278 222.07C311.274 233.666 313.827 246.959 313.935 261.952C313.827 283.971 308.613 303.063 298.295 319.226C288.085 335.272 273.313 347.746 253.98 356.648C234.755 365.432 211.565 369.824 184.412 369.824C157.475 369.824 134.014 365.374 114.029 356.472C94.1521 347.57 78.6202 334.394 67.4328 316.942C60.1889 305.455 55.1971 292.19 52.4575 277.147C49.9468 263.361 61.5176 251.762 75.53 251.762H94.7907C107.987 251.762 118.093 262.493 123.598 274.487C124.821 277.15 126.247 279.648 127.877 281.98C133.634 289.945 141.291 295.977 150.849 300.076C160.516 304.058 171.432 306.049 183.597 306.049C195.545 306.049 205.917 304.175 214.715 300.427C223.622 296.679 230.519 291.467 235.406 284.791C240.294 278.115 242.738 270.443 242.738 261.776C242.738 253.694 240.511 246.901 236.058 241.396C231.714 235.891 225.305 231.206 216.833 227.341C208.47 223.476 198.206 219.962 186.041 216.8L149.709 206.961C121.578 199.582 99.3657 188.045 83.0734 172.35C66.7811 156.656 58.6892 135.514 58.7978 108.927C58.6892 87.1415 64.0657 68.1086 74.9272 51.8281C85.8974 35.5477 100.941 22.8395 120.057 13.7037C139.173 4.5679 160.896 0 185.226 0C209.99 0 231.605 4.5679 250.069 13.7037C268.643 22.8395 283.089 35.5477 293.407 51.8281C299.477 61.4053 303.818 71.8741 306.43 83.2347C309.557 96.8356 297.946 108.4 283.991 108.4H264.567Z" fill="url(#paint0_linear_16_24)"/>
<path d="M428.25 370C402.508 370 380.351 364.378 361.778 353.134C343.313 341.773 329.084 325.726 319.092 304.995C309.099 284.147 304.103 259.492 304.103 231.03C304.103 203.272 309.099 178.909 319.092 157.944C329.084 136.978 343.15 120.639 361.289 108.927C379.536 97.2143 400.934 91.358 425.481 91.358C441.99 91.358 457.359 94.2276 471.588 99.9668C485.925 105.589 498.416 114.08 509.06 125.442C519.813 136.803 528.176 151.092 534.15 168.31C540.124 185.41 543.111 205.438 543.111 228.395C543.111 239.748 533.908 248.951 522.555 248.951H331.8V202.569H477.779C477.779 191.793 475.607 182.248 471.262 173.932C466.917 165.616 460.889 159.115 453.178 154.43C445.574 149.628 436.722 147.227 426.621 147.227C416.085 147.227 406.744 149.862 398.598 155.133C390.561 160.286 384.261 167.255 379.699 176.04C375.137 184.707 372.802 194.37 372.694 205.028V249.126C372.694 262.479 374.974 274.016 379.536 283.737C384.207 293.458 390.778 300.954 399.25 306.225C407.722 311.496 417.769 314.131 429.391 314.131C437.102 314.131 444.162 312.96 450.571 310.617C456.979 308.275 462.464 304.761 467.026 300.076C467.308 299.786 467.586 299.492 467.86 299.195C475.485 290.902 485.245 283.413 496.481 284.213L513.451 285.42C528.432 286.486 539.386 300.714 532.589 314.106C529.54 320.114 525.879 325.744 521.605 330.997C511.613 343.295 498.687 352.9 482.829 359.81C467.08 366.603 448.887 370 428.25 370Z" fill="url(#paint1_linear_16_24)"/>
<path d="M660.652 96.453C674.46 96.453 685.652 107.646 685.652 121.453V127.673C685.652 141.48 674.46 152.673 660.652 152.673H538.581C524.774 152.673 513.581 141.48 513.581 127.673V121.453C513.581 107.646 524.774 96.453 538.581 96.453H660.652ZM547.795 56.7997C547.795 42.9925 558.988 31.7996 572.795 31.7996H592.2C606.007 31.7996 617.2 42.9925 617.2 56.7996V283.386C617.2 290.296 618.178 295.684 620.133 299.549C622.088 303.297 624.803 305.932 628.279 307.455C631.863 308.978 635.991 309.739 640.661 309.739C643.92 309.739 647.178 309.446 650.437 308.86C660.399 306.712 670.442 315.418 672.402 325.419L673.415 330.585C674.003 333.584 674.003 336.668 673.415 339.667L671.639 348.726C669.913 357.535 663.583 364.724 654.861 366.849C654.637 366.903 654.411 366.958 654.184 367.013C647.884 368.653 640.227 369.649 631.212 370C614.485 370.703 599.822 368.302 587.222 362.797C574.732 357.292 565.011 348.742 558.059 337.146C551.108 325.551 547.686 310.91 547.795 293.224V56.7997Z" fill="url(#paint2_linear_16_24)"/>
</g>
<g filter="url(#filter1_d_16_24)">
<ellipse cx="31" cy="213" rx="27" ry="28" fill="url(#paint3_linear_16_24)"/>
</g>
<rect x="290" width="407" height="12" rx="6" fill="#B4004B"/>
<defs>
<filter id="filter0_i_16_24" x="52.113" y="0" width="633.539" height="374.119" filterUnits="userSpaceOnUse" color-interpolation-filters="sRGB">
<feFlood flood-opacity="0" result="BackgroundImageFix"/>
<feBlend mode="normal" in="SourceGraphic" in2="BackgroundImageFix" result="shape"/>
<feColorMatrix in="SourceAlpha" type="matrix" values="0 0 0 0 0 0 0 0 0 0 0 0 0 0 0 0 0 0 127 0" result="hardAlpha"/>
<feOffset dy="4"/>
<feGaussianBlur stdDeviation="2"/>
<feComposite in2="hardAlpha" operator="arithmetic" k2="-1" k3="1"/>
<feColorMatrix type="matrix" values="0 0 0 0 0 0 0 0 0 0 0 0 0 0 0 0 0 0 0.25 0"/>
<feBlend mode="normal" in2="shape" result="effect1_innerShadow_16_24"/>
</filter>
<filter id="filter1_d_16_24" x="0" y="185" width="62" height="64" filterUnits="userSpaceOnUse" color-interpolation-filters="sRGB">
<feFlood flood-opacity="0" result="BackgroundImageFix"/>
<feColorMatrix in="SourceAlpha" type="matrix" values="0 0 0 0 0 0 0 0 0 0 0 0 0 0 0 0 0 0 127 0" result="hardAlpha"/>
<feOffset dy="4"/>
<feGaussianBlur stdDeviation="2"/>
<feComposite in2="hardAlpha" operator="out"/>
<feColorMatrix type="matrix" values="0 0 0 0 0 0 0 0 0 0 0 0 0 0 0 0 0 0 0.25 0"/>
<feBlend mode="normal" in2="BackgroundImageFix" result="effect1_dropShadow_16_24"/>
<feBlend mode="normal" in="SourceGraphic" in2="effect1_dropShadow_16_24" result="shape"/>
</filter>
<linearGradient id="paint0_linear_16_24" x1="644.5" y1="335.5" x2="405.72" y2="-28.3428" gradientUnits="userSpaceOnUse">
<stop stop-color="white"/>
<stop offset="1" stop-color="#C4C4C4"/>
</linearGradient>
<linearGradient id="paint1_linear_16_24" x1="644.5" y1="335.5" x2="405.72" y2="-28.3428" gradientUnits="userSpaceOnUse">
<stop stop-color="white"/>
<stop offset="1" stop-color="#C4C4C4"/>
</linearGradient>
<linearGradient id="paint2_linear_16_24" x1="644.5" y1="335.5" x2="405.72" y2="-28.3428" gradientUnits="userSpaceOnUse">
<stop stop-color="white"/>
<stop offset="1" stop-color="#C4C4C4"/>
</linearGradient>
<linearGradient id="paint3_linear_16_24" x1="31" y1="185" x2="40.5" y2="213" gradientUnits="userSpaceOnUse">
<stop stop-color="#160303"/>
<stop offset="1" stop-color="#880E7C"/>
</linearGradient>
</defs>
</svg>
