<svg width="1440" height="1004" viewBox="0 0 1440 1004" fill="none" xmlns="http://www.w3.org/2000/svg">
<g filter="url(#filter0_f_131_4)">
<ellipse cx="719.5" cy="492" rx="885.5" ry="242" fill="url(#paint0_linear_131_4)"/>
</g>
<g filter="url(#filter1_f_131_4)">
<path d="M1416 691C1416 754.513 1099.02 806 708 806C316.982 806 0 754.513 0 691C0 627.487 316.982 576 708 576C1099.02 576 1416 627.487 1416 691Z" fill="url(#paint1_linear_131_4)"/>
<path d="M1416 691C1416 754.513 1099.02 806 708 806C316.982 806 0 754.513 0 691C0 627.487 316.982 576 708 576C1099.02 576 1416 627.487 1416 691Z" fill="url(#paint2_linear_131_4)"/>
<path d="M1416 691C1416 754.513 1099.02 806 708 806C316.982 806 0 754.513 0 691C0 627.487 316.982 576 708 576C1099.02 576 1416 627.487 1416 691Z" fill="url(#paint3_linear_131_4)"/>
</g>
<defs>
<filter id="filter0_f_131_4" x="-416" y="0" width="2271" height="984" filterUnits="userSpaceOnUse" color-interpolation-filters="sRGB">
<feFlood flood-opacity="0" result="BackgroundImageFix"/>
<feBlend mode="normal" in="SourceGraphic" in2="BackgroundImageFix" result="shape"/>
<feGaussianBlur stdDeviation="125" result="effect1_foregroundBlur_131_4"/>
</filter>
<filter id="filter1_f_131_4" x="-250" y="326" width="1916" height="730" filterUnits="userSpaceOnUse" color-interpolation-filters="sRGB">
<feFlood flood-opacity="0" result="BackgroundImageFix"/>
<feBlend mode="normal" in="SourceGraphic" in2="BackgroundImageFix" result="shape"/>
<feGaussianBlur stdDeviation="125" result="effect1_foregroundBlur_131_4"/>
</filter>
<linearGradient id="paint0_linear_131_4" x1="719.5" y1="250" x2="719.5" y2="734" gradientUnits="userSpaceOnUse">
<stop stop-color="#251178" stop-opacity="0.4"/>
<stop offset="1" stop-color="#560E68"/>
</linearGradient>
<linearGradient id="paint1_linear_131_4" x1="708" y1="576" x2="708" y2="806" gradientUnits="userSpaceOnUse">
<stop stop-color="#5C125E" stop-opacity="0.4"/>
<stop offset="1" stop-color="#560E68"/>
</linearGradient>
<linearGradient id="paint2_linear_131_4" x1="708" y1="576" x2="708" y2="806" gradientUnits="userSpaceOnUse">
<stop stop-color="#5C125E" stop-opacity="0.4"/>
<stop offset="1" stop-color="#560E68"/>
</linearGradient>
<linearGradient id="paint3_linear_131_4" x1="708" y1="576" x2="708" y2="806" gradientUnits="userSpaceOnUse">
<stop stop-color="#5C125E" stop-opacity="0.4"/>
<stop offset="1" stop-color="#FF0AD8"/>
</linearGradient>
</defs>
</svg>
